<?xml version="1.0" encoding="UTF-8" standalone="no"?>
<!-- Created with Inkscape (http://www.inkscape.org/) -->

<svg
   xmlns:dc="http://purl.org/dc/elements/1.1/"
   xmlns:cc="http://creativecommons.org/ns#"
   xmlns:rdf="http://www.w3.org/1999/02/22-rdf-syntax-ns#"
   xmlns:svg="http://www.w3.org/2000/svg"
   xmlns="http://www.w3.org/2000/svg"
   xmlns:xlink="http://www.w3.org/1999/xlink"
   xmlns:sodipodi="http://sodipodi.sourceforge.net/DTD/sodipodi-0.dtd"
   xmlns:inkscape="http://www.inkscape.org/namespaces/inkscape"
   width="640"
   height="640"
   viewBox="0 0 640 640"
   id="svg2"
   version="1.1"
   inkscape:version="0.91 r13725"
   sodipodi:docname="app-icon.svg"
   inkscape:export-filename="D:\GitHub\Overwatch-Player-Log\OverwatchPlayerLog\Resources\Icons\app-icon.png"
   inkscape:export-xdpi="90"
   inkscape:export-ydpi="90">
  <defs
     id="defs4">
    <linearGradient
       inkscape:collect="always"
       id="linearGradient4396">
      <stop
         style="stop-color:#003e67;stop-opacity:1;"
         offset="0"
         id="stop4398" />
      <stop
         style="stop-color:#003e67;stop-opacity:0;"
         offset="1"
         id="stop4400" />
    </linearGradient>
    <linearGradient
       id="linearGradient4352">
      <stop
         id="stop4354"
         style="stop-color:#000000;stop-opacity:1"
         offset="0" />
      <stop
         id="stop4356"
         style="stop-color:#ffffff;stop-opacity:1"
         offset="1" />
    </linearGradient>
    <linearGradient
       id="linearGradient4959">
      <stop
         offset="0"
         style="stop-color:#000000;stop-opacity:1"
         id="stop4961" />
      <stop
         offset="1"
         style="stop-color:#ffffff;stop-opacity:1"
         id="stop4963" />
    </linearGradient>
    <linearGradient
       gradientUnits="userSpaceOnUse"
       xlink:href="#linearGradient4959"
       id="linearGradient4965"
       y2="505.0625"
       x2="300"
       y1="96.734383"
       x1="300" />
    <linearGradient
       gradientUnits="userSpaceOnUse"
       xlink:href="#linearGradient4959"
       id="linearGradient4973"
       y2="16.369165"
       x2="300.00049"
       y1="583.62787"
       x1="300.00049" />
    <linearGradient
       gradientUnits="userSpaceOnUse"
       xlink:href="#linearGradient4959"
       id="linearGradient4235"
       y2="505.0625"
       x2="300"
       y1="96.734383"
       x1="300" />
    <linearGradient
       gradientUnits="userSpaceOnUse"
       xlink:href="#linearGradient4959"
       id="linearGradient4237"
       y2="16.369165"
       x2="300.00049"
       y1="583.62787"
       x1="300.00049" />
    <linearGradient
       inkscape:collect="always"
       xlink:href="#linearGradient4396"
       id="linearGradient4404"
       x1="537.49341"
       y1="276.47672"
       x2="23.326715"
       y2="271.5618"
       gradientUnits="userSpaceOnUse" />
    <filter
       inkscape:collect="always"
       style="color-interpolation-filters:sRGB"
       id="filter4430"
       x="-0.017589212"
       width="1.0351784"
       y="-0.018430434"
       height="1.0368609">
      <feGaussianBlur
         inkscape:collect="always"
         stdDeviation="5.0464286"
         id="feGaussianBlur4432" />
    </filter>
  </defs>
  <sodipodi:namedview
     id="base"
     pagecolor="#ffffff"
     bordercolor="#ffffff"
     borderopacity="0"
     inkscape:pageopacity="0"
     inkscape:pageshadow="2"
     inkscape:zoom="0.7"
     inkscape:cx="404.93373"
     inkscape:cy="366.15678"
     inkscape:document-units="px"
     inkscape:current-layer="layer7"
     showgrid="false"
     units="px"
     width="640px"
     inkscape:window-width="2560"
     inkscape:window-height="1387"
     inkscape:window-x="-8"
     inkscape:window-y="22"
     inkscape:window-maximized="1" />
  <metadata
     id="metadata7">
    <rdf:RDF>
      <cc:Work
         rdf:about="">
        <dc:format>image/svg+xml</dc:format>
        <dc:type
           rdf:resource="http://purl.org/dc/dcmitype/StillImage" />
        <dc:title></dc:title>
        <dc:creator>
          <cc:Agent>
            <dc:title>Benjamin YanXiang Huang</dc:title>
          </cc:Agent>
        </dc:creator>
      </cc:Work>
    </rdf:RDF>
  </metadata>
  <g
     inkscape:groupmode="layer"
     id="layer4"
     inkscape:label="shadow"
     style="opacity:1">
    <rect
       style="fill:#003e67;fill-opacity:0.73964497;stroke:none"
       id="rect4267"
       width="534"
       height="514"
       x="58.571423"
       y="73.571396"
       ry="53.479496" />
  </g>
  <g
     inkscape:label="notebook"
     inkscape:groupmode="layer"
     id="layer1"
     transform="translate(0,-412.3622)">
    <rect
       style="fill:#0094ce;fill-opacity:1;fill-rule:evenodd;stroke:none;stroke-width:1.04444325px;stroke-linecap:butt;stroke-linejoin:miter;stroke-opacity:1"
       id="rect3354"
       width="534"
       height="514"
       x="53"
       y="480.36221"
       ry="50.657467" />
  </g>
  <g
     inkscape:groupmode="layer"
     id="layer7"
     inkscape:label="notebook gradient"
     style="display:inline;opacity:1">
    <rect
       style="opacity:0.308;fill:url(#linearGradient4404);fill-opacity:1;fill-rule:nonzero;stroke:none;filter:url(#filter4430)"
       id="rect4390"
       width="688.57141"
       height="657.14288"
       x="-21.428572"
       y="-0.71428764"
       ry="53.4795"
       transform="matrix(0.78075428,0,0,0.77983251,70.920898,74.040782)" />
  </g>
  <g
     inkscape:groupmode="layer"
     id="layer2"
     inkscape:label="OW icon"
     style="display:inline"
     sodipodi:insensitive="true">
    <g
       id="g4239"
       transform="matrix(0.60741118,0,0,0.60735428,137.77665,159.07784)">
      <path
         style="color:#000000;display:inline;overflow:visible;visibility:visible;fill:#a6aeab;fill-opacity:1;fill-rule:nonzero;stroke:none;stroke-width:9;marker:none;enable-background:accumulate"
         id="path3961-5"
         d="M 296.70405,0.00424149 C 229.93779,0.43221149 163.9322,24.232681 112.07437,66.087451 l 56.66164,65.785689 C 216.5573,94.134131 280.99173,78.755181 340.75427,90.636091 c 32.84344,6.31836 64.09548,20.739679 90.46333,41.237049 L 487.87924,66.087451 C 434.24075,22.804341 365.76667,-1.0306785 296.70405,0.00424149 Z"
         inkscape:connector-curvature="0" />
      <path
         style="color:#000000;display:inline;overflow:visible;visibility:visible;fill:#4a4c4e;fill-opacity:1;fill-rule:nonzero;stroke:none;stroke-width:9;marker:none;enable-background:accumulate"
         id="path4052-4"
         d="M 93.627932,82.252881 C 33.924062,138.34244 -1.0821983,219.87731 0.02552166,302.12246 0.06092166,387.49363 39.004212,471.35277 103.6776,526.81868 c 59.78108,52.2845 141.08577,78.91882 220.46136,72.18109 86.01035,-6.40518 167.64782,-52.34458 218.11716,-122.14284 49.12454,-66.32853 68.37083,-153.7971 52.06401,-234.90882 C 582.33252,179.85678 549.77957,122.31301 503.48268,79.542111 L 446.82104,145.3278 c 45.65578,43.03442 70.58508,106.55713 65.88486,169.22459 -2.05604,31.04856 -11.0736,61.69033 -26.31427,88.95944 l -115.47207,-111.53814 -58.26,-125.58266 -0.0876,190.17825 116.69522,112.92659 c -52.0019,40.40208 -123.35295,53.80249 -186.57773,35.89403 -25.74389,-7.18124 -50.12185,-19.23034 -71.30879,-35.39816 L 288.86927,356.56928 c -0.20481,-61.83078 0.7175,-128.57681 -6.9e-4,-190.3826 L 230.52166,291.97369 114.05785,404.43746 c -35.530468,-62.02488 -36.380378,-142.2105 -2.18183,-204.92738 10.69103,-20.0919 24.84106,-38.42801 41.25655,-54.18228 L 96.470932,79.542111 c -0.94767,0.90359 -1.89534,1.80717 -2.843,2.71077 z"
         inkscape:connector-curvature="0" />
    </g>
  </g>
  <g
     inkscape:groupmode="layer"
     id="layer6"
     inkscape:label="bookmark shadow"
     sodipodi:insensitive="true">
    <path
       style="display:inline;fill:#000000;fill-opacity:0.2071006"
       d="m 116,67.235597 0,118.824823 36.57954,-61.35447 36.57953,61.35447 0,-118.824823 -73.15907,0 z m 73.15907,118.824823 -73.15907,0 0,0.0982 73.15907,0 0,-0.0982 z"
       id="rect4243-4"
       inkscape:connector-curvature="0" />
  </g>
  <g
     inkscape:groupmode="layer"
     id="layer3"
     inkscape:label="bookmark"
     style="display:inline"
     sodipodi:insensitive="true">
    <path
       style="fill:#d0c02a;fill-opacity:1"
       d="m 114,67.106585 0,115.796875 36.5,-59.79101 36.5,59.79101 0,-115.796875 -73,0 z m 73,115.796875 -73,0 0,0.0957 73,0 0,-0.0957 z"
       id="rect4243"
       inkscape:connector-curvature="0" />
  </g>
</svg>
