<?xml version="1.0" encoding="UTF-8"?>
<svg width="458px" height="442px" viewBox="0 0 458 442" version="1.1" xmlns="http://www.w3.org/2000/svg" xmlns:xlink="http://www.w3.org/1999/xlink">
    <!-- Generator: Sketch 41 (35326) - http://www.bohemiancoding.com/sketch -->
    <title>icon</title>
    <desc>Created with Sketch.</desc>
    <defs>
        <linearGradient x1="100%" y1="91.0848614%" x2="0%" y2="6.38182909%" id="linearGradient-1">
            <stop stop-color="#007BAC" offset="0%"></stop>
            <stop stop-color="#049CD8" offset="100%"></stop>
        </linearGradient>
        <rect id="path-2" x="9" y="1" width="440" height="440" rx="54"></rect>
        <filter x="-50%" y="-50%" width="200%" height="200%" filterUnits="objectBoundingBox" id="filter-3">
            <feMorphology radius="1" operator="dilate" in="SourceAlpha" result="shadowSpreadOuter1"></feMorphology>
            <feOffset dx="2" dy="2" in="shadowSpreadOuter1" result="shadowOffsetOuter1"></feOffset>
            <feGaussianBlur stdDeviation="3" in="shadowOffsetOuter1" result="shadowBlurOuter1"></feGaussianBlur>
            <feColorMatrix values="0 0 0 0 0   0 0 0 0 0   0 0 0 0 0  0 0 0 0.5 0" type="matrix" in="shadowBlurOuter1"></feColorMatrix>
        </filter>
        <path d="M0.392592593,0.00145963609 L0.392592593,100.916599 L32.1962963,48.8096824 L64,100.916599 L64,0.00145963609 L0.392592593,0.00145963609 Z M64,100.916599 L0.392592593,100.916599 L0.392592593,101 L64,101 L64,100.916599 Z" id="path-4"></path>
        <filter x="-50%" y="-50%" width="200%" height="200%" filterUnits="objectBoundingBox" id="filter-5">
            <feOffset dx="2" dy="2" in="SourceAlpha" result="shadowOffsetOuter1"></feOffset>
            <feGaussianBlur stdDeviation="2" in="shadowOffsetOuter1" result="shadowBlurOuter1"></feGaussianBlur>
            <feColorMatrix values="0 0 0 0 0   0 0 0 0 0   0 0 0 0 0  0 0 0 0.5 0" type="matrix" in="shadowBlurOuter1"></feColorMatrix>
        </filter>
    </defs>
    <g id="Symbols" stroke="none" stroke-width="1" fill="none" fill-rule="evenodd">
        <g id="icon">
            <g id="book">
                <g id="rect3354">
                    <use fill="black" fill-opacity="1" filter="url(#filter-3)" xlink:href="#path-2"></use>
                    <use fill="url(#linearGradient-1)" fill-rule="evenodd" xlink:href="#path-2"></use>
                </g>
                <g id="bookmark" transform="translate(65.000000, -1.000000)">
                    <g id="rect4243">
                        <use fill="black" fill-opacity="1" filter="url(#filter-5)" xlink:href="#path-4"></use>
                        <use fill="#D0C02A" fill-rule="evenodd" xlink:href="#path-4"></use>
                    </g>
                </g>
            </g>
            <g id="Overwatch-icon" transform="translate(75.000000, 81.000000)">
                <path d="M152.520667,0.517316625 C118.199482,0.737777539 84.2693199,12.9981538 57.6118111,34.5588726 L86.7387176,68.4471664 C111.321244,49.0066066 144.443752,41.0844219 175.164675,47.2046553 C192.04784,50.4594428 208.112946,57.8883214 221.667335,68.4471664 L250.794241,34.5588726 C223.221385,12.2623706 188.022295,-0.0158034678 152.520667,0.517316625 Z" id="path3961-5" fill="#A6AEAB"></path>
                <path d="M48.1294227,42.8861981 C17.4386584,71.7797079 -0.556303854,113.780904 0.013119405,156.147988 C0.0313167691,200.125384 20.0501086,243.323885 53.2954529,271.896134 C84.025907,298.829537 125.820569,312.549719 166.623578,309.078901 C210.837184,305.77939 252.802912,282.114549 278.746667,246.159252 C303.999129,211.991324 313.892681,166.933491 305.510163,125.150273 C299.347934,93.1650604 282.614096,63.5224404 258.815187,41.4897945 L229.688281,75.3780883 C253.157627,97.5464822 265.972529,130.269044 263.556382,162.551039 C262.499475,178.545136 257.864,194.329683 250.029536,208.376866 L190.671137,150.920035 L160.722594,86.2284257 L160.677564,184.195271 L220.664722,242.367337 C193.933154,263.179729 157.255159,270.082705 124.754471,260.85749 C111.520829,257.158205 98.9893424,250.951332 88.0981995,242.622775 L148.4932,184.195271 C148.387917,152.344276 148.86203,117.96128 148.492845,86.1231586 L118.499621,150.920035 L58.6314186,208.853688 C40.3669875,176.902706 39.9300914,135.596551 57.5098493,103.289098 C63.0055715,92.9391237 70.279392,83.4936121 78.7177719,75.3780883 L49.5908664,41.4897945 C49.1037168,41.9552624 48.6165672,42.4207251 48.1294227,42.8861981 Z" id="path4052-4" fill="#4A4C4E"></path>
            </g>
        </g>
    </g>
</svg>